<svg id="Layer_1" data-name="Layer 1" xmlns="http://www.w3.org/2000/svg" viewBox="0 0 620 620"><defs><style>.cls-1{fill:#f17259;}.cls-2{fill:#fff;}</style></defs><title>Artboard 1</title><rect class="cls-1" width="620" height="620"/><path class="cls-2" d="M443.19,230c0-11-7.44-20.45-18.2-24.85a9.84,9.84,0,0,0-1.48-4.4l-9.34,5.14,4.54-12.35c-2.82-24-18.75-45.35-42.17-52.87l-1.72-.55c-31.73-10.18-65.65,8.68-75.37,41.9l-14.33,37.66,11.55-2.56L281,230.43l-.11.29-60.27,63.12a77.2,77.2,0,0,0,55,19.9,76.91,76.91,0,0,1-63.26-4.31c-1.46-.79-2.88-1.61-4.26-2.48l-31,32.47s15.5,22.39,54,22.11L254,359.34,227.74,370.4l-43.1,113.21s71.69-11.69,102.64-57.81,28.64-57.91,28.64-57.91,40.49,13.16,70.08-20.48c33.18-37.71,21-95.22,21-95.22L413.5,230ZM373.9,199.51c-2.25,7.67-10,12-17.33,9.64s-11.45-10.48-9.21-18.16,10-12,17.34-9.64S376.15,191.83,373.9,199.51Z"/></svg>